<?xml version="1.0" encoding="UTF-8" standalone="no"?>
<svg
   viewBox="0 0 480.01031 480.01038"
   version="1.1"
   id="svg1"
   sodipodi:docname="reshot-icon-phone-XVG9DMYSLJ.svg"
   width="480.01031"
   height="480.01038"
   xmlns:inkscape="http://www.inkscape.org/namespaces/inkscape"
   xmlns:sodipodi="http://sodipodi.sourceforge.net/DTD/sodipodi-0.dtd"
   xmlns="http://www.w3.org/2000/svg"
   xmlns:svg="http://www.w3.org/2000/svg">
  <defs
     id="defs1" />
  <sodipodi:namedview
     id="namedview1"
     pagecolor="#ffffff"
     bordercolor="#000000"
     borderopacity="0.25"
     inkscape:showpageshadow="2"
     inkscape:pageopacity="0.0"
     inkscape:pagecheckerboard="0"
     inkscape:deskcolor="#d1d1d1" />
  <path
     d="m -26.578387,-30.27526 a 2.108,2.108 0 0 1 -0.522,3.359 7.543,7.543 0 0 1 -5.476,0.642 c -4.886,-1.23 -11.909,-8.253 -13.139,-13.139 a 7.543,7.543 0 0 1 0.642,-5.476 2.108,2.108 0 0 1 3.359,-0.522 l 2.085,2.084 a 2.094,2.094 0 0 1 0.445,2.328 3.877,3.877 0 0 1 -0.778,1.172 c -2.384,2.384 5.417,10.185 7.8,7.8 a 3.877,3.877 0 0 1 1.173,-0.781 2.092,2.092 0 0 1 2.328,0.445 z"
     id="path1"
     style="fill:#bfa181;fill-opacity:1" />
</svg>
