<?xml version="1.0" encoding="UTF-8" standalone="no"?>
<!-- Created with Inkscape (http://www.inkscape.org/) -->

<svg
   width="132.64445mm"
   height="113.5244mm"
   viewBox="0 0 132.64445 113.5244"
   version="1.1"
   id="svg1"
   xml:space="preserve"
   xmlns:inkscape="http://www.inkscape.org/namespaces/inkscape"
   xmlns:sodipodi="http://sodipodi.sourceforge.net/DTD/sodipodi-0.dtd"
   xmlns="http://www.w3.org/2000/svg"
   xmlns:svg="http://www.w3.org/2000/svg"><sodipodi:namedview
     id="namedview1"
     pagecolor="#ffffff"
     bordercolor="#000000"
     borderopacity="0.25"
     inkscape:showpageshadow="2"
     inkscape:pageopacity="0.0"
     inkscape:pagecheckerboard="0"
     inkscape:deskcolor="#d1d1d1"
     inkscape:document-units="mm" /><defs
     id="defs1" /><g
     inkscape:label="Layer 1"
     inkscape:groupmode="layer"
     id="layer1"
     style="display:inline"
     transform="translate(-12.305766,-19.656648)"><g
       id="g45"
       transform="translate(-26.487838,-66.489879)"
       inkscape:export-filename="mylogo.svg"
       inkscape:export-xdpi="114.8936"
       inkscape:export-ydpi="114.8936"
       style="fill:#bfa181;fill-opacity:1"><path
         d="m 38.793604,86.287637 c 0,0.07055 1.799166,3.210277 4.021667,6.985 2.187222,3.739445 7.761111,13.229163 12.347223,21.096113 4.621389,7.86694 8.643056,14.49917 8.960556,14.78139 0.3175,0.24694 9.313334,4.23333 19.967223,8.81944 l 19.402777,8.36084 4.33917,7.72583 c 2.39889,4.23334 4.30389,7.83167 4.26861,7.9375 -0.35278,0.84667 -7.54944,13.05278 -7.69056,13.05278 -0.10583,0 -3.52777,-5.78555 -7.549441,-12.87639 -4.056944,-7.05555 -7.514167,-12.98222 -7.761111,-13.15861 -0.529167,-0.45861 -17.885835,-7.90222 -18.026946,-7.76111 -0.03528,0.0705 1.693334,3.10444 3.880556,6.80861 2.151945,3.66889 6.420556,10.90083 9.419167,16.05139 12.523612,21.37833 20.813895,35.45417 20.919725,35.56 0.0353,0.0706 4.40972,-7.33778 9.70139,-16.40417 12.73528,-21.87222 12.34722,-21.16666 12.34722,-21.59 0,-0.49389 -15.45167,-26.14083 -16.1925,-26.88167 -0.3175,-0.3175 -2.2225,-1.27 -4.26861,-2.18722 -26.458336,-11.53583 -35.560003,-15.59278 -36.018614,-16.08667 -0.635,-0.635 -10.548057,-17.956386 -10.548057,-18.414997 0,-0.176389 1.728612,-0.352778 3.845278,-0.388056 l 3.880556,-0.105833 -3.069167,-5.750278 -3.069167,-5.715001 H 50.364715 c -6.385278,0 -11.571111,0.07056 -11.571111,0.141112 z"
         id="path1"
         style="fill:#bfa181;fill-opacity:1;stroke:none;stroke-width:0.0352778" /><path
         d="m 69.979161,86.71097 c 0.352778,0.9525 14.746112,26.38778 15.169446,26.84639 0.458611,0.49389 17.850553,8.255 17.850553,7.97278 0,-0.10583 -2.99861,-5.22111 -6.702775,-11.39472 -3.668889,-6.17362 -6.808612,-11.465283 -6.914445,-11.782783 -0.211667,-0.493889 0.599722,-0.564444 7.690556,-0.564444 h 7.902224 l 6.94972,11.888607 c 3.81,6.56167 7.12611,12.20612 7.37306,12.55889 0.38805,0.52917 1.30528,-0.81138 7.86694,-11.7475 l 7.40834,-12.347219 h 7.69055 7.72584 l -0.70556,1.128889 c -4.05694,6.70278 -24.87083,42.50972 -24.87083,42.79195 0,0.35277 7.26722,12.55889 7.37305,12.41778 0.0353,-0.0353 7.09084,-12.13556 15.66334,-26.88167 8.5725,-14.74612 17.49777,-30.021394 19.79083,-33.972505 2.32833,-3.951112 4.19806,-7.231945 4.19806,-7.302501 0,-0.105833 -10.05417,-0.176389 -22.29556,-0.176389 h -22.33084 l -3.35138,6.138334 c -1.83445,3.386667 -3.42195,6.067778 -3.52778,5.961945 -0.10584,-0.07056 -1.62278,-2.822222 -3.38667,-6.0325 l -3.24556,-5.89139 -21.766385,-0.105833 C 71.848883,86.146525 69.767494,86.181803 69.979161,86.71097 Z"
         id="path2"
         style="fill:#bfa181;fill-opacity:1;stroke:none;stroke-width:0.0352778" /></g><path
       style="fill:#bfa181;fill-opacity:1;stroke-width:0.382238"
       d="m 104.54289,86.35304 c -0.42001,-0.601639 -2.01192,-3.221109 -3.53758,-5.82105 -2.533296,-4.317074 -2.734821,-4.813023 -2.323,-5.716866 0.551579,-1.210582 11.46553,-20.101451 19.18523,-33.207552 3.12047,-5.297752 5.67357,-9.726951 5.67357,-9.842664 0,-0.115713 -3.50937,-0.210386 -7.79859,-0.210386 h -7.7986 l -6.78218,11.180501 c -3.730195,6.149276 -7.087601,11.573515 -7.460905,12.053866 l -0.678733,0.87336 -1.86142,-3.166798 C 90.136906,50.753713 86.912979,45.243468 83.9964,40.250469 l -5.302863,-9.078188 h -7.964239 c -5.305864,0 -7.964241,0.133924 -7.964241,0.401222 0,0.610653 0.59545,1.66936 7.05377,12.541573 3.291943,5.541798 5.914358,10.14699 5.827591,10.23376 -0.145024,0.145024 -7.088751,-2.8595 -14.028079,-6.06989 L 58.751542,46.952661 53.912643,38.393552 C 51.25125,33.686043 47.873921,27.684348 46.407465,25.056451 l -2.66628,-4.777991 3.873904,-0.211866 c 2.130647,-0.116525 11.808518,-0.132667 21.506381,-0.03587 l 17.632476,0.175995 3.199569,5.769462 c 1.759765,3.173201 3.364302,5.746877 3.565639,5.719273 0.30956,-0.04244 2.127149,-3.084131 6.308402,-10.556957 l 0.802024,-1.433398 19.19611,0.04996 c 10.55787,0.02748 20.42478,0.156485 21.92647,0.286679 l 2.73035,0.23672 -19.28102,33.063706 c -10.60456,18.18504 -19.41916,33.297941 -19.58799,33.584231 -0.23392,0.396664 -0.48869,0.260218 -1.07061,-0.573357 z"
       id="path45" /><path
       style="fill:#bfa181;fill-opacity:1;stroke-width:0.382238"
       d="m 55.223104,19.822453 c 0.371906,-0.09691 0.887928,-0.09054 1.146717,0.01416 0.258789,0.104704 -0.0455,0.183997 -0.676193,0.176207 -0.630695,-0.0078 -0.842431,-0.09346 -0.470524,-0.19037 z"
       id="path46" /></g></svg>
